# MagicaVoxel @ Ephtracy

# group
g bluejean_male

# material
mtllib bluejean_male.mtl
usemtl palette

# normals
vn -1 0 0
vn 1 0 0
vn 0 0 1
vn 0 0 -1
vn 0 -1 0
vn 0 1 0

# texcoords
vt 0.236328 0.5
vt 0.798828 0.5
vt 0.958984 0.5
vt 0.994141 0.5

# verts
v -3 10 3
v -3 10 -3
v -3 12 3
v -3 12 -3
v -3 18 5
v -3 18 3
v -3 18 -3
v -3 18 -5
v -3 22 5
v -3 22 4
v -3 22 -4
v -3 22 -5
v -3 23 4
v -3 23 -4
v -3 24 2
v -3 24 -2
v -3 25 2
v -3 25 -2
v -3 28 2
v -3 28 -2
v -2 0 2
v -2 0 -2
v -2 2 2
v -2 2 -2
v -2 10 2
v -2 10 -2
v -2 12 5
v -2 12 3
v -2 12 -3
v -2 12 -5
v -2 18 5
v -2 18 3
v -2 18 -3
v -2 18 -5
v -2 23 1
v -2 23 -1
v -2 24 1
v -2 24 -1
v 0 1 2
v 0 1 -2
v 0 2 2
v 0 2 -2
v 0 10 2
v 0 10 -2
v 0 12 5
v 0 12 3
v 0 12 -3
v 0 12 -5
v 0 18 5
v 0 18 3
v 0 18 -3
v 0 18 -5
v 0 23 1
v 0 23 -1
v 0 24 1
v 0 24 -1
v 1 0 2
v 1 0 -2
v 1 1 2
v 1 1 -2
v 1 10 3
v 1 10 -3
v 1 12 3
v 1 12 -3
v 1 18 5
v 1 18 3
v 1 18 -3
v 1 18 -5
v 1 22 5
v 1 22 4
v 1 22 -4
v 1 22 -5
v 1 23 4
v 1 23 -4
v 1 24 2
v 1 24 -2
v 1 27 2
v 1 27 -2
v 1 28 2
v 1 28 -2
v -3 18 5
v -3 22 5
v -2 12 5
v -2 18 5
v 0 12 5
v 0 18 5
v 1 18 5
v 1 22 5
v -3 22 4
v -3 23 4
v 1 22 4
v 1 23 4
v -3 10 3
v -3 12 3
v -3 18 3
v -2 12 3
v -2 18 3
v 0 12 3
v 0 18 3
v 1 10 3
v 1 12 3
v 1 18 3
v -3 24 2
v -3 25 2
v -3 28 2
v -2 0 2
v -2 2 2
v -2 10 2
v -2 25 2
v -2 26 2
v -1 26 2
v -1 27 2
v 0 1 2
v 0 2 2
v 0 10 2
v 1 0 2
v 1 1 2
v 1 24 2
v 1 27 2
v 1 28 2
v -2 23 1
v -2 24 1
v 0 23 1
v 0 24 1
v -2 23 -1
v -2 24 -1
v 0 23 -1
v 0 24 -1
v -3 24 -2
v -3 25 -2
v -3 28 -2
v -2 0 -2
v -2 2 -2
v -2 10 -2
v -2 25 -2
v -2 26 -2
v -1 26 -2
v -1 27 -2
v 0 1 -2
v 0 2 -2
v 0 10 -2
v 1 0 -2
v 1 1 -2
v 1 24 -2
v 1 27 -2
v 1 28 -2
v -3 10 -3
v -3 12 -3
v -3 18 -3
v -2 12 -3
v -2 18 -3
v 0 12 -3
v 0 18 -3
v 1 10 -3
v 1 12 -3
v 1 18 -3
v -3 22 -4
v -3 23 -4
v 1 22 -4
v 1 23 -4
v -3 18 -5
v -3 22 -5
v -2 12 -5
v -2 18 -5
v 0 12 -5
v 0 18 -5
v 1 18 -5
v 1 22 -5
v -2 0 2
v 1 0 2
v -2 0 -2
v 1 0 -2
v -3 10 3
v 1 10 3
v -2 10 2
v 0 10 2
v -2 10 -2
v 0 10 -2
v -3 10 -3
v 1 10 -3
v -2 12 5
v 0 12 5
v -2 12 3
v 0 12 3
v -2 12 -3
v 0 12 -3
v -2 12 -5
v 0 12 -5
v -3 18 5
v -2 18 5
v 0 18 5
v 1 18 5
v -3 18 3
v -2 18 3
v 0 18 3
v 1 18 3
v -3 18 -3
v -2 18 -3
v 0 18 -3
v 1 18 -3
v -3 18 -5
v -2 18 -5
v 0 18 -5
v 1 18 -5
v -3 24 2
v 1 24 2
v -2 24 1
v 0 24 1
v -2 24 -1
v 0 24 -1
v -3 24 -2
v 1 24 -2
v 0 1 2
v 1 1 2
v 0 1 -2
v 1 1 -2
v -3 22 5
v 1 22 5
v -3 22 4
v 1 22 4
v -3 22 -4
v 1 22 -4
v -3 22 -5
v 1 22 -5
v -3 23 4
v 1 23 4
v -2 23 1
v 0 23 1
v -2 23 -1
v 0 23 -1
v -3 23 -4
v 1 23 -4
v -3 28 2
v 1 28 2
v -3 28 -2
v 1 28 -2

# faces
f 3/2/1 2/2/1 1/2/1
f 4/2/1 2/2/1 3/2/1
f 6/3/1 4/3/1 3/3/1
f 7/3/1 4/3/1 6/3/1
f 9/3/1 7/3/1 6/3/1
f 9/3/1 8/3/1 7/3/1
f 9/3/1 6/3/1 5/3/1
f 10/3/1 8/3/1 9/3/1
f 11/3/1 8/3/1 10/3/1
f 12/3/1 8/3/1 11/3/1
f 13/3/1 11/3/1 10/3/1
f 14/3/1 11/3/1 13/3/1
f 17/1/1 16/1/1 15/1/1
f 18/1/1 16/1/1 17/1/1
f 19/4/1 18/4/1 17/4/1
f 20/4/1 18/4/1 19/4/1
f 23/4/1 22/4/1 21/4/1
f 24/4/1 22/4/1 23/4/1
f 25/2/1 24/2/1 23/2/1
f 26/2/1 24/2/1 25/2/1
f 31/1/1 28/1/1 27/1/1
f 32/1/1 28/1/1 31/1/1
f 33/1/1 30/1/1 29/1/1
f 34/1/1 30/1/1 33/1/1
f 37/1/1 36/1/1 35/1/1
f 38/1/1 36/1/1 37/1/1
f 39/4/2 40/4/2 41/4/2
f 41/4/2 40/4/2 42/4/2
f 41/2/2 42/2/2 43/2/2
f 43/2/2 42/2/2 44/2/2
f 45/1/2 46/1/2 49/1/2
f 49/1/2 46/1/2 50/1/2
f 47/1/2 48/1/2 51/1/2
f 51/1/2 48/1/2 52/1/2
f 53/1/2 54/1/2 55/1/2
f 55/1/2 54/1/2 56/1/2
f 57/4/2 58/4/2 59/4/2
f 59/4/2 58/4/2 60/4/2
f 61/2/2 62/2/2 63/2/2
f 63/2/2 62/2/2 64/2/2
f 63/3/2 64/3/2 66/3/2
f 66/3/2 64/3/2 67/3/2
f 66/3/2 67/3/2 69/3/2
f 67/3/2 68/3/2 69/3/2
f 65/3/2 66/3/2 69/3/2
f 69/3/2 68/3/2 70/3/2
f 70/3/2 68/3/2 71/3/2
f 71/3/2 68/3/2 72/3/2
f 70/3/2 71/3/2 73/3/2
f 73/3/2 71/3/2 74/3/2
f 75/1/2 76/1/2 77/1/2
f 77/1/2 76/1/2 78/1/2
f 77/4/2 78/4/2 79/4/2
f 79/4/2 78/4/2 80/4/2
f 84/3/3 82/3/3 81/3/3
f 85/1/3 84/1/3 83/1/3
f 86/3/3 82/3/3 84/3/3
f 86/1/3 84/1/3 85/1/3
f 87/3/3 82/3/3 86/3/3
f 88/3/3 82/3/3 87/3/3
f 91/3/3 90/3/3 89/3/3
f 92/3/3 90/3/3 91/3/3
f 96/2/3 94/2/3 93/2/3
f 96/3/3 95/3/3 94/3/3
f 97/3/3 95/3/3 96/3/3
f 98/2/3 96/2/3 93/2/3
f 100/2/3 98/2/3 93/2/3
f 101/3/3 99/3/3 98/3/3
f 101/2/3 98/2/3 100/2/3
f 102/3/3 99/3/3 101/3/3
f 109/1/3 104/1/3 103/1/3
f 109/4/3 105/4/3 104/4/3
f 110/4/3 105/4/3 109/4/3
f 111/1/3 110/1/3 109/1/3
f 111/4/3 105/4/3 110/4/3
f 112/4/3 105/4/3 111/4/3
f 113/4/3 107/4/3 106/4/3
f 114/2/3 108/2/3 107/2/3
f 114/4/3 107/4/3 113/4/3
f 115/2/3 108/2/3 114/2/3
f 116/4/3 113/4/3 106/4/3
f 117/4/3 113/4/3 116/4/3
f 118/1/3 109/1/3 103/1/3
f 118/1/3 111/1/3 109/1/3
f 118/1/3 112/1/3 111/1/3
f 119/4/3 105/4/3 112/4/3
f 119/1/3 112/1/3 118/1/3
f 120/4/3 105/4/3 119/4/3
f 123/1/3 122/1/3 121/1/3
f 124/1/3 122/1/3 123/1/3
f 125/1/4 126/1/4 127/1/4
f 127/1/4 126/1/4 128/1/4
f 129/1/4 130/1/4 135/1/4
f 130/4/4 131/4/4 135/4/4
f 135/4/4 131/4/4 136/4/4
f 135/1/4 136/1/4 137/1/4
f 136/4/4 131/4/4 137/4/4
f 137/4/4 131/4/4 138/4/4
f 132/4/4 133/4/4 139/4/4
f 133/2/4 134/2/4 140/2/4
f 139/4/4 133/4/4 140/4/4
f 140/2/4 134/2/4 141/2/4
f 132/4/4 139/4/4 142/4/4
f 142/4/4 139/4/4 143/4/4
f 129/1/4 135/1/4 144/1/4
f 135/1/4 137/1/4 144/1/4
f 137/1/4 138/1/4 144/1/4
f 138/4/4 131/4/4 145/4/4
f 144/1/4 138/1/4 145/1/4
f 145/4/4 131/4/4 146/4/4
f 147/2/4 148/2/4 150/2/4
f 148/3/4 149/3/4 150/3/4
f 150/3/4 149/3/4 151/3/4
f 147/2/4 150/2/4 152/2/4
f 147/2/4 152/2/4 154/2/4
f 152/3/4 153/3/4 155/3/4
f 154/2/4 152/2/4 155/2/4
f 155/3/4 153/3/4 156/3/4
f 157/3/4 158/3/4 159/3/4
f 159/3/4 158/3/4 160/3/4
f 161/3/4 162/3/4 164/3/4
f 163/1/4 164/1/4 165/1/4
f 164/3/4 162/3/4 166/3/4
f 165/1/4 164/1/4 166/1/4
f 166/3/4 162/3/4 167/3/4
f 167/3/4 162/3/4 168/3/4
f 171/4/5 170/4/5 169/4/5
f 172/4/5 170/4/5 171/4/5
f 175/2/5 174/2/5 173/2/5
f 176/2/5 174/2/5 175/2/5
f 177/2/5 175/2/5 173/2/5
f 178/2/5 174/2/5 176/2/5
f 179/2/5 177/2/5 173/2/5
f 179/2/5 178/2/5 177/2/5
f 180/2/5 174/2/5 178/2/5
f 180/2/5 178/2/5 179/2/5
f 183/1/5 182/1/5 181/1/5
f 184/1/5 182/1/5 183/1/5
f 187/1/5 186/1/5 185/1/5
f 188/1/5 186/1/5 187/1/5
f 193/3/5 190/3/5 189/3/5
f 194/3/5 190/3/5 193/3/5
f 195/3/5 192/3/5 191/3/5
f 196/3/5 192/3/5 195/3/5
f 201/3/5 198/3/5 197/3/5
f 202/3/5 198/3/5 201/3/5
f 203/3/5 200/3/5 199/3/5
f 204/3/5 200/3/5 203/3/5
f 207/1/5 206/1/5 205/1/5
f 208/1/5 206/1/5 207/1/5
f 209/1/5 207/1/5 205/1/5
f 210/1/5 206/1/5 208/1/5
f 211/1/5 209/1/5 205/1/5
f 211/1/5 210/1/5 209/1/5
f 212/1/5 206/1/5 210/1/5
f 212/1/5 210/1/5 211/1/5
f 213/4/6 214/4/6 215/4/6
f 215/4/6 214/4/6 216/4/6
f 217/3/6 218/3/6 219/3/6
f 219/3/6 218/3/6 220/3/6
f 221/3/6 222/3/6 223/3/6
f 223/3/6 222/3/6 224/3/6
f 225/3/6 226/3/6 227/3/6
f 227/3/6 226/3/6 228/3/6
f 225/3/6 227/3/6 229/3/6
f 228/3/6 226/3/6 230/3/6
f 225/3/6 229/3/6 231/3/6
f 229/3/6 230/3/6 231/3/6
f 230/3/6 226/3/6 232/3/6
f 231/3/6 230/3/6 232/3/6
f 233/4/6 234/4/6 235/4/6
f 235/4/6 234/4/6 236/4/6
