# MagicaVoxel @ Ephtracy

# group
g LD_person_lady

# material
mtllib LD_person_lady.mtl
usemtl palette

# normals
vn -1 0 0
vn 1 0 0
vn 0 0 1
vn 0 0 -1
vn 0 -1 0
vn 0 1 0

# texcoords
vt 0.0761719 0.5
vt 0.236328 0.5
vt 0.720703 0.5
vt 0.810547 0.5
vt 0.896484 0.5
vt 0.958984 0.5
vt 0.994141 0.5

# verts
v -4 23 2
v -4 23 -2
v -4 24 3
v -4 24 2
v -4 24 -2
v -4 24 -3
v -4 28 3
v -4 28 -3
v -3 2 3
v -3 2 -3
v -3 21 1
v -3 21 -1
v -3 22 2
v -3 22 1
v -3 22 -1
v -3 22 -2
v -3 23 3
v -3 23 2
v -3 23 -2
v -3 23 -3
v -3 28 2
v -3 28 -2
v -3 29 2
v -3 29 -2
v -2 0 2
v -2 0 -2
v -2 1 2
v -2 1 -2
v -2 2 2
v -2 2 -2
v -2 12 5
v -2 12 3
v -2 12 -3
v -2 12 -5
v -2 21 5
v -2 21 4
v -2 21 -4
v -2 21 -5
v -2 22 4
v -2 22 3
v -2 22 -3
v -2 22 -4
v -2 23 2
v -2 23 1
v -2 23 -1
v -2 23 -2
v -2 24 3
v -2 24 2
v -2 24 1
v -2 24 -1
v -2 24 -2
v -2 24 -3
v -2 26 3
v -2 26 2
v -2 26 -2
v -2 26 -3
v 0 1 2
v 0 1 -2
v 0 2 2
v 0 2 -2
v 0 12 5
v 0 12 3
v 0 12 -3
v 0 12 -5
v 0 21 5
v 0 21 4
v 0 21 -4
v 0 21 -5
v 0 22 4
v 0 22 3
v 0 22 -3
v 0 22 -4
v 0 23 1
v 0 23 -1
v 0 24 1
v 0 24 -1
v 1 0 2
v 1 0 -2
v 1 1 2
v 1 1 -2
v 1 2 3
v 1 2 -3
v 1 21 1
v 1 21 -1
v 1 22 2
v 1 22 1
v 1 22 -1
v 1 22 -2
v 1 23 3
v 1 23 2
v 1 23 -2
v 1 23 -3
v 1 24 2
v 1 24 -2
v 1 26 3
v 1 26 2
v 1 26 -0
v 1 26 -2
v 1 26 -3
v 1 27 -0
v 1 27 -2
v 1 28 3
v 1 28 2
v 1 28 -2
v 1 28 -3
v 1 29 2
v 1 29 -2
v 2 26 2
v 2 26 -0
v 2 27 -0
v 2 27 -2
v 2 28 2
v 2 28 -2
v -2 12 5
v -2 21 5
v 0 12 5
v 0 21 5
v -2 21 4
v -2 22 4
v 0 21 4
v 0 22 4
v -4 24 3
v -4 28 3
v -3 2 3
v -3 23 3
v -2 12 3
v -2 22 3
v -2 24 3
v -2 26 3
v 0 12 3
v 0 22 3
v 1 2 3
v 1 23 3
v 1 26 3
v 1 28 3
v -4 23 2
v -4 24 2
v -3 23 2
v -3 28 2
v -3 29 2
v -2 0 2
v -2 1 2
v -2 2 2
v -2 23 2
v -2 24 2
v -2 26 2
v 0 1 2
v 0 2 2
v 1 0 2
v 1 1 2
v 1 24 2
v 1 26 2
v 1 28 2
v 1 29 2
v 2 26 2
v 2 28 2
v -2 23 1
v -2 24 1
v 0 23 1
v 0 24 1
v 1 26 -0
v 1 27 -0
v 2 26 -0
v 2 27 -0
v -2 23 -1
v -2 24 -1
v 0 23 -1
v 0 24 -1
v -4 23 -2
v -4 24 -2
v -3 23 -2
v -3 28 -2
v -3 29 -2
v -2 0 -2
v -2 1 -2
v -2 2 -2
v -2 23 -2
v -2 24 -2
v -2 26 -2
v 0 1 -2
v 0 2 -2
v 1 0 -2
v 1 1 -2
v 1 24 -2
v 1 26 -2
v 1 27 -2
v 1 28 -2
v 1 29 -2
v 2 27 -2
v 2 28 -2
v -4 24 -3
v -4 28 -3
v -3 2 -3
v -3 23 -3
v -2 12 -3
v -2 22 -3
v -2 24 -3
v -2 26 -3
v 0 12 -3
v 0 22 -3
v 1 2 -3
v 1 23 -3
v 1 26 -3
v 1 28 -3
v -2 21 -4
v -2 22 -4
v 0 21 -4
v 0 22 -4
v -2 12 -5
v -2 21 -5
v 0 12 -5
v 0 21 -5
v -2 0 2
v 1 0 2
v -2 0 -2
v 1 0 -2
v -3 2 3
v 1 2 3
v -2 2 2
v 0 2 2
v -2 2 -2
v 0 2 -2
v -3 2 -3
v 1 2 -3
v -2 12 5
v 0 12 5
v -2 12 3
v 0 12 3
v -2 12 -3
v 0 12 -3
v -2 12 -5
v 0 12 -5
v -4 23 2
v -3 23 2
v -4 23 -2
v -3 23 -2
v -4 24 3
v -2 24 3
v -4 24 2
v -2 24 2
v 1 24 2
v -2 24 1
v 0 24 1
v -2 24 -1
v 0 24 -1
v -4 24 -2
v -2 24 -2
v 1 24 -2
v -4 24 -3
v -2 24 -3
v -2 26 3
v 1 26 3
v -2 26 2
v 1 26 2
v 2 26 2
v 1 26 -0
v 2 26 -0
v -2 26 -2
v 1 26 -2
v -2 26 -3
v 1 26 -3
v 1 27 -0
v 2 27 -0
v 1 27 -2
v 2 27 -2
v 0 1 2
v 1 1 2
v 0 1 -2
v 1 1 -2
v -2 21 5
v 0 21 5
v -2 21 4
v 0 21 4
v -2 21 -4
v 0 21 -4
v -2 21 -5
v 0 21 -5
v -2 22 4
v 0 22 4
v -2 22 3
v 0 22 3
v -2 22 -3
v 0 22 -3
v -2 22 -4
v 0 22 -4
v -3 23 3
v 1 23 3
v -3 23 2
v -2 23 2
v 1 23 2
v -2 23 1
v 0 23 1
v -2 23 -1
v 0 23 -1
v -3 23 -2
v -2 23 -2
v 1 23 -2
v -3 23 -3
v 1 23 -3
v -4 28 3
v 1 28 3
v -3 28 2
v 1 28 2
v 2 28 2
v -3 28 -2
v 1 28 -2
v 2 28 -2
v -4 28 -3
v 1 28 -3
v -3 29 2
v 1 29 2
v -3 29 -2
v 1 29 -2

# faces
f 4/1/1 2/1/1 1/1/1
f 5/1/1 2/1/1 4/1/1
f 7/1/1 4/1/1 3/1/1
f 7/1/1 6/1/1 5/1/1
f 7/1/1 5/1/1 4/1/1
f 8/1/1 6/1/1 7/1/1
f 11/4/1 10/4/1 9/4/1
f 12/4/1 10/4/1 11/4/1
f 13/4/1 11/4/1 9/4/1
f 14/2/1 12/2/1 11/2/1
f 14/4/1 11/4/1 13/4/1
f 15/4/1 10/4/1 12/4/1
f 15/2/1 12/2/1 14/2/1
f 16/4/1 10/4/1 15/4/1
f 17/4/1 13/4/1 9/4/1
f 18/2/1 14/2/1 13/2/1
f 18/4/1 13/4/1 17/4/1
f 18/2/1 15/2/1 14/2/1
f 18/2/1 16/2/1 15/2/1
f 19/4/1 10/4/1 16/4/1
f 19/2/1 16/2/1 18/2/1
f 20/4/1 10/4/1 19/4/1
f 23/1/1 22/1/1 21/1/1
f 24/1/1 22/1/1 23/1/1
f 27/3/1 26/3/1 25/3/1
f 28/3/1 26/3/1 27/3/1
f 29/2/1 28/2/1 27/2/1
f 30/2/1 28/2/1 29/2/1
f 35/2/1 32/2/1 31/2/1
f 36/2/1 32/2/1 35/2/1
f 37/2/1 34/2/1 33/2/1
f 38/2/1 34/2/1 37/2/1
f 39/2/1 32/2/1 36/2/1
f 40/2/1 32/2/1 39/2/1
f 41/2/1 37/2/1 33/2/1
f 42/2/1 37/2/1 41/2/1
f 43/1/2 44/1/2 48/1/2
f 48/1/2 44/1/2 49/1/2
f 45/1/2 46/1/2 50/1/2
f 50/1/2 46/1/2 51/1/2
f 47/1/2 48/1/2 53/1/2
f 53/1/2 48/1/2 54/1/2
f 51/1/2 52/1/2 55/1/2
f 55/1/2 52/1/2 56/1/2
f 57/2/2 58/2/2 59/2/2
f 59/2/2 58/2/2 60/2/2
f 61/2/2 62/2/2 65/2/2
f 65/2/2 62/2/2 66/2/2
f 63/2/2 64/2/2 67/2/2
f 67/2/2 64/2/2 68/2/2
f 66/2/2 62/2/2 69/2/2
f 69/2/2 62/2/2 70/2/2
f 63/2/2 67/2/2 71/2/2
f 71/2/2 67/2/2 72/2/2
f 73/2/2 74/2/2 75/2/2
f 75/2/2 74/2/2 76/2/2
f 77/3/2 78/3/2 79/3/2
f 79/3/2 78/3/2 80/3/2
f 81/4/2 82/4/2 83/4/2
f 83/4/2 82/4/2 84/4/2
f 81/4/2 83/4/2 85/4/2
f 83/2/2 84/2/2 86/2/2
f 85/4/2 83/4/2 86/4/2
f 84/4/2 82/4/2 87/4/2
f 86/2/2 84/2/2 87/2/2
f 87/4/2 82/4/2 88/4/2
f 81/4/2 85/4/2 89/4/2
f 85/2/2 86/2/2 90/2/2
f 89/4/2 85/4/2 90/4/2
f 86/2/2 87/2/2 90/2/2
f 87/2/2 88/2/2 90/2/2
f 88/4/2 82/4/2 91/4/2
f 90/2/2 88/2/2 91/2/2
f 91/4/2 82/4/2 92/4/2
f 93/2/2 94/2/2 96/2/2
f 96/2/2 94/2/2 97/2/2
f 97/2/2 94/2/2 98/2/2
f 97/2/2 98/2/2 100/2/2
f 98/1/2 99/1/2 101/1/2
f 100/2/2 98/2/2 101/2/2
f 95/1/2 96/1/2 102/1/2
f 102/1/2 96/1/2 103/1/2
f 101/1/2 99/1/2 104/1/2
f 104/1/2 99/1/2 105/1/2
f 103/1/2 104/1/2 106/1/2
f 106/1/2 104/1/2 107/1/2
f 108/1/2 109/1/2 110/1/2
f 108/1/2 110/1/2 112/1/2
f 110/1/2 111/1/2 112/1/2
f 112/1/2 111/1/2 113/1/2
f 116/2/3 115/2/3 114/2/3
f 117/2/3 115/2/3 116/2/3
f 120/2/3 119/2/3 118/2/3
f 121/2/3 119/2/3 120/2/3
f 126/4/3 125/4/3 124/4/3
f 127/4/3 125/4/3 126/4/3
f 128/1/3 123/1/3 122/1/3
f 129/1/3 123/1/3 128/1/3
f 130/4/3 126/4/3 124/4/3
f 131/4/3 125/4/3 127/4/3
f 132/4/3 130/4/3 124/4/3
f 132/4/3 131/4/3 130/4/3
f 133/4/3 125/4/3 131/4/3
f 133/4/3 131/4/3 132/4/3
f 134/1/3 123/1/3 129/1/3
f 135/1/3 123/1/3 134/1/3
f 138/1/3 137/1/3 136/1/3
f 144/1/3 137/1/3 138/1/3
f 145/1/3 137/1/3 144/1/3
f 147/2/3 143/2/3 142/2/3
f 147/3/3 142/3/3 141/3/3
f 148/2/3 143/2/3 147/2/3
f 149/3/3 147/3/3 141/3/3
f 150/3/3 147/3/3 149/3/3
f 151/2/3 146/2/3 145/2/3
f 152/2/3 146/2/3 151/2/3
f 153/1/3 140/1/3 139/1/3
f 154/1/3 140/1/3 153/1/3
f 155/1/3 153/1/3 152/1/3
f 156/1/3 153/1/3 155/1/3
f 159/2/3 158/2/3 157/2/3
f 160/2/3 158/2/3 159/2/3
f 161/1/4 162/1/4 163/1/4
f 163/1/4 162/1/4 164/1/4
f 165/2/4 166/2/4 167/2/4
f 167/2/4 166/2/4 168/2/4
f 169/1/4 170/1/4 171/1/4
f 171/1/4 170/1/4 177/1/4
f 177/1/4 170/1/4 178/1/4
f 175/2/4 176/2/4 180/2/4
f 174/3/4 175/3/4 180/3/4
f 180/2/4 176/2/4 181/2/4
f 174/3/4 180/3/4 182/3/4
f 182/3/4 180/3/4 183/3/4
f 178/2/4 179/2/4 184/2/4
f 184/2/4 179/2/4 185/2/4
f 172/1/4 173/1/4 187/1/4
f 187/1/4 173/1/4 188/1/4
f 186/1/4 187/1/4 189/1/4
f 189/1/4 187/1/4 190/1/4
f 193/4/4 194/4/4 195/4/4
f 195/4/4 194/4/4 196/4/4
f 191/1/4 192/1/4 197/1/4
f 197/1/4 192/1/4 198/1/4
f 193/4/4 195/4/4 199/4/4
f 196/4/4 194/4/4 200/4/4
f 193/4/4 199/4/4 201/4/4
f 199/4/4 200/4/4 201/4/4
f 200/4/4 194/4/4 202/4/4
f 201/4/4 200/4/4 202/4/4
f 198/1/4 192/1/4 203/1/4
f 203/1/4 192/1/4 204/1/4
f 205/2/4 206/2/4 207/2/4
f 207/2/4 206/2/4 208/2/4
f 209/2/4 210/2/4 211/2/4
f 211/2/4 210/2/4 212/2/4
f 215/3/5 214/3/5 213/3/5
f 216/3/5 214/3/5 215/3/5
f 219/4/5 218/4/5 217/4/5
f 220/4/5 218/4/5 219/4/5
f 221/4/5 219/4/5 217/4/5
f 222/4/5 218/4/5 220/4/5
f 223/4/5 221/4/5 217/4/5
f 223/4/5 222/4/5 221/4/5
f 224/4/5 218/4/5 222/4/5
f 224/4/5 222/4/5 223/4/5
f 227/2/5 226/2/5 225/2/5
f 228/2/5 226/2/5 227/2/5
f 231/2/5 230/2/5 229/2/5
f 232/2/5 230/2/5 231/2/5
f 235/1/5 234/1/5 233/1/5
f 236/1/5 234/1/5 235/1/5
f 239/1/5 238/1/5 237/1/5
f 240/1/5 238/1/5 239/1/5
f 242/2/5 241/2/5 240/2/5
f 243/2/5 241/2/5 242/2/5
f 245/2/5 241/2/5 243/2/5
f 247/2/5 245/2/5 244/2/5
f 248/2/5 241/2/5 245/2/5
f 248/2/5 245/2/5 247/2/5
f 249/1/5 247/1/5 246/1/5
f 250/1/5 247/1/5 249/1/5
f 253/1/5 252/1/5 251/1/5
f 254/1/5 252/1/5 253/1/5
f 256/1/5 255/1/5 254/1/5
f 257/1/5 255/1/5 256/1/5
f 260/1/5 259/1/5 258/1/5
f 261/1/5 259/1/5 260/1/5
f 264/1/5 263/1/5 262/1/5
f 265/1/5 263/1/5 264/1/5
f 266/3/6 267/3/6 268/3/6
f 268/3/6 267/3/6 269/3/6
f 270/2/6 271/2/6 272/2/6
f 272/2/6 271/2/6 273/2/6
f 274/2/6 275/2/6 276/2/6
f 276/2/6 275/2/6 277/2/6
f 278/2/6 279/2/6 280/2/6
f 280/2/6 279/2/6 281/2/6
f 282/2/6 283/2/6 284/2/6
f 284/2/6 283/2/6 285/2/6
f 286/4/6 287/4/6 288/4/6
f 288/4/6 287/4/6 289/4/6
f 289/4/6 287/4/6 290/4/6
f 289/2/6 290/2/6 291/2/6
f 291/2/6 290/2/6 292/2/6
f 292/2/6 290/2/6 294/2/6
f 293/2/6 294/2/6 296/2/6
f 294/2/6 290/2/6 297/2/6
f 296/2/6 294/2/6 297/2/6
f 295/4/6 296/4/6 298/4/6
f 296/4/6 297/4/6 298/4/6
f 298/4/6 297/4/6 299/4/6
f 300/1/6 301/1/6 302/1/6
f 302/1/6 301/1/6 303/1/6
f 300/1/6 302/1/6 305/1/6
f 303/1/6 304/1/6 306/1/6
f 306/1/6 304/1/6 307/1/6
f 300/1/6 305/1/6 308/1/6
f 305/1/6 306/1/6 308/1/6
f 308/1/6 306/1/6 309/1/6
f 310/1/6 311/1/6 312/1/6
f 312/1/6 311/1/6 313/1/6
