# MagicaVoxel @ Ephtracy

# group
g house

# material
mtllib house.mtl
usemtl palette

# normals
vn -1 0 0
vn 1 0 0
vn 0 0 1
vn 0 0 -1
vn 0 -1 0
vn 0 1 0

# texcoords
vt 0.0917969 0.5
vt 0.107422 0.5
vt 0.119141 0.5
vt 0.595703 0.5
vt 0.978516 0.5
vt 0.986328 0.5

# verts
v -4 4 4
v -4 4 2
v -4 4 -2
v -4 4 -4
v -4 5 4
v -4 5 3
v -4 5 2
v -4 5 1
v -4 5 -1
v -4 5 -2
v -4 5 -3
v -4 5 -4
v -4 6 3
v -4 6 2
v -4 6 1
v -4 6 -1
v -4 6 -2
v -4 6 -3
v -4 7 2
v -4 7 1
v -4 7 -1
v -4 7 -2
v -4 8 1
v -4 8 -1
v -3 0 3
v -3 0 -3
v -3 2 2
v -3 2 1
v -3 2 -1
v -3 2 -2
v -3 3 2
v -3 3 1
v -3 3 -1
v -3 3 -2
v -3 4 3
v -3 4 2
v -3 4 -2
v -3 4 -3
v -3 5 2
v -3 5 1
v -3 5 -1
v -3 5 -2
v -3 6 1
v -3 6 -1
v -2 6 3
v -2 6 2
v -2 7 2
v -2 8 3
v -2 8 2
v -1 6 3
v -1 6 2
v -1 7 2
v -1 8 3
v -1 8 2
v 3 1 3
v 3 1 1
v 3 1 -1
v 3 1 -3
v 3 3 1
v 3 3 -1
v 3 4 3
v 3 4 2
v 3 4 1
v 3 4 -1
v 3 4 -2
v 3 4 -3
v 3 5 2
v 3 5 1
v 3 5 -1
v 3 5 -2
v 3 6 1
v 3 6 -1
v 4 0 3
v 4 0 1
v 4 0 -1
v 4 0 -3
v 4 1 3
v 4 1 1
v 4 1 -1
v 4 1 -3
v 4 4 4
v 4 4 2
v 4 4 -2
v 4 4 -4
v 4 5 4
v 4 5 3
v 4 5 2
v 4 5 1
v 4 5 -1
v 4 5 -2
v 4 5 -3
v 4 5 -4
v 4 6 3
v 4 6 2
v 4 6 1
v 4 6 -1
v 4 6 -2
v 4 6 -3
v 4 7 2
v 4 7 1
v 4 7 -1
v 4 7 -2
v 4 8 1
v 4 8 -1
v -4 4 4
v -4 5 4
v 4 4 4
v 4 5 4
v -4 5 3
v -4 6 3
v -3 0 3
v -3 4 3
v -2 2 3
v -2 3 3
v -2 6 3
v -2 8 3
v -1 2 3
v -1 3 3
v -1 6 3
v -1 8 3
v 1 2 3
v 1 3 3
v 2 2 3
v 2 3 3
v 3 0 3
v 3 1 3
v 3 4 3
v 4 0 3
v 4 1 3
v 4 5 3
v 4 6 3
v -4 6 2
v -4 7 2
v -2 6 2
v -2 7 2
v -1 6 2
v -1 7 2
v 4 6 2
v 4 7 2
v -4 7 1
v -4 8 1
v 4 7 1
v 4 8 1
v -4 5 -1
v -4 6 -1
v -3 5 -1
v -3 6 -1
v 3 5 -1
v 3 6 -1
v 4 5 -1
v 4 6 -1
v -4 4 -2
v -4 5 -2
v -3 4 -2
v -3 5 -2
v 3 4 -2
v 3 5 -2
v 4 4 -2
v 4 5 -2
v -4 4 2
v -4 5 2
v -3 4 2
v -3 5 2
v -2 7 2
v -2 8 2
v -1 7 2
v -1 8 2
v 3 4 2
v 3 5 2
v 4 4 2
v 4 5 2
v -4 5 1
v -4 6 1
v -3 5 1
v -3 6 1
v 3 5 1
v 3 6 1
v 4 5 1
v 4 6 1
v -4 7 -1
v -4 8 -1
v 4 7 -1
v 4 8 -1
v -4 6 -2
v -4 7 -2
v 4 6 -2
v 4 7 -2
v -4 5 -3
v -4 6 -3
v -3 0 -3
v -3 4 -3
v -2 2 -3
v -2 3 -3
v -1 2 -3
v -1 3 -3
v 1 2 -3
v 1 3 -3
v 2 2 -3
v 2 3 -3
v 3 0 -3
v 3 1 -3
v 3 4 -3
v 4 0 -3
v 4 1 -3
v 4 5 -3
v 4 6 -3
v -4 4 -4
v -4 5 -4
v 4 4 -4
v 4 5 -4
v -3 0 3
v 3 0 3
v 4 0 3
v 2 0 1
v 3 0 1
v 4 0 1
v 2 0 -1
v 3 0 -1
v 4 0 -1
v -3 0 -3
v 3 0 -3
v 4 0 -3
v -4 4 4
v 4 4 4
v -3 4 3
v 3 4 3
v -4 4 2
v -3 4 2
v 3 4 2
v 4 4 2
v -4 4 -2
v -3 4 -2
v 3 4 -2
v 4 4 -2
v -3 4 -3
v 3 4 -3
v -4 4 -4
v 4 4 -4
v -4 5 2
v -3 5 2
v 3 5 2
v 4 5 2
v -4 5 1
v -3 5 1
v 3 5 1
v 4 5 1
v -4 5 -1
v -3 5 -1
v 3 5 -1
v 4 5 -1
v -4 5 -2
v -3 5 -2
v 3 5 -2
v 4 5 -2
v -4 6 1
v -3 6 1
v 3 6 1
v 4 6 1
v -4 6 -1
v -3 6 -1
v 3 6 -1
v 4 6 -1
v 3 1 3
v 4 1 3
v 3 1 1
v 4 1 1
v 3 1 -1
v 4 1 -1
v 3 1 -3
v 4 1 -3
v -4 5 4
v 4 5 4
v -4 5 3
v 4 5 3
v -4 5 -3
v 4 5 -3
v -4 5 -4
v 4 5 -4
v -4 6 3
v -2 6 3
v -1 6 3
v 4 6 3
v -4 6 2
v -2 6 2
v -1 6 2
v 4 6 2
v -4 6 -2
v 4 6 -2
v -4 6 -3
v 4 6 -3
v -4 7 2
v -2 7 2
v -1 7 2
v 4 7 2
v -4 7 1
v 4 7 1
v -4 7 -1
v 4 7 -1
v -4 7 -2
v 4 7 -2
v -2 8 3
v -1 8 3
v -2 8 2
v -1 8 2
v -4 8 1
v 4 8 1
v -4 8 -1
v 4 8 -1

# faces
f 5/6/1 2/6/1 1/6/1
f 6/6/1 2/6/1 5/6/1
f 7/6/1 2/6/1 6/6/1
f 10/6/1 4/6/1 3/6/1
f 11/6/1 4/6/1 10/6/1
f 12/6/1 4/6/1 11/6/1
f 13/6/1 8/6/1 7/6/1
f 13/6/1 7/6/1 6/6/1
f 14/6/1 8/6/1 13/6/1
f 15/6/1 8/6/1 14/6/1
f 16/6/1 11/6/1 10/6/1
f 16/6/1 10/6/1 9/6/1
f 17/6/1 11/6/1 16/6/1
f 18/6/1 11/6/1 17/6/1
f 19/6/1 15/6/1 14/6/1
f 19/6/1 17/6/1 16/6/1
f 19/6/1 16/6/1 15/6/1
f 20/6/1 17/6/1 19/6/1
f 21/6/1 17/6/1 20/6/1
f 22/6/1 17/6/1 21/6/1
f 23/6/1 21/6/1 20/6/1
f 24/6/1 21/6/1 23/6/1
f 27/2/1 26/2/1 25/2/1
f 28/2/1 26/2/1 27/2/1
f 29/2/1 26/2/1 28/2/1
f 30/2/1 26/2/1 29/2/1
f 31/2/1 27/2/1 25/2/1
f 31/1/1 28/1/1 27/1/1
f 32/2/1 29/2/1 28/2/1
f 32/1/1 28/1/1 31/1/1
f 33/1/1 30/1/1 29/1/1
f 33/2/1 29/2/1 32/2/1
f 34/2/1 26/2/1 30/2/1
f 34/1/1 30/1/1 33/1/1
f 35/2/1 33/2/1 32/2/1
f 35/2/1 32/2/1 31/2/1
f 35/2/1 34/2/1 33/2/1
f 35/2/1 31/2/1 25/2/1
f 36/2/1 34/2/1 35/2/1
f 37/2/1 26/2/1 34/2/1
f 37/2/1 34/2/1 36/2/1
f 38/2/1 26/2/1 37/2/1
f 39/2/1 37/2/1 36/2/1
f 40/2/1 37/2/1 39/2/1
f 41/2/1 37/2/1 40/2/1
f 42/2/1 37/2/1 41/2/1
f 43/2/1 41/2/1 40/2/1
f 44/2/1 41/2/1 43/2/1
f 47/2/1 46/2/1 45/2/1
f 48/2/1 47/2/1 45/2/1
f 49/2/1 47/2/1 48/2/1
f 50/2/2 51/2/2 52/2/2
f 50/2/2 52/2/2 53/2/2
f 53/2/2 52/2/2 54/2/2
f 55/2/2 56/2/2 59/2/2
f 56/3/2 57/3/2 59/3/2
f 57/2/2 58/2/2 60/2/2
f 59/3/2 57/3/2 60/3/2
f 55/2/2 59/2/2 61/2/2
f 61/2/2 59/2/2 62/2/2
f 59/1/2 60/1/2 63/1/2
f 62/2/2 59/2/2 63/2/2
f 60/2/2 58/2/2 64/2/2
f 63/1/2 60/1/2 64/1/2
f 64/2/2 58/2/2 65/2/2
f 65/2/2 58/2/2 66/2/2
f 62/2/2 63/2/2 67/2/2
f 64/2/2 65/2/2 67/2/2
f 63/2/2 64/2/2 67/2/2
f 67/2/2 65/2/2 68/2/2
f 68/2/2 65/2/2 69/2/2
f 69/2/2 65/2/2 70/2/2
f 68/2/2 69/2/2 71/2/2
f 71/2/2 69/2/2 72/2/2
f 73/4/2 74/4/2 77/4/2
f 74/5/2 75/5/2 78/5/2
f 77/4/2 74/4/2 78/4/2
f 75/4/2 76/4/2 79/4/2
f 78/5/2 75/5/2 79/5/2
f 79/4/2 76/4/2 80/4/2
f 81/6/2 82/6/2 85/6/2
f 85/6/2 82/6/2 86/6/2
f 86/6/2 82/6/2 87/6/2
f 83/6/2 84/6/2 90/6/2
f 90/6/2 84/6/2 91/6/2
f 91/6/2 84/6/2 92/6/2
f 87/6/2 88/6/2 93/6/2
f 86/6/2 87/6/2 93/6/2
f 93/6/2 88/6/2 94/6/2
f 94/6/2 88/6/2 95/6/2
f 90/6/2 91/6/2 96/6/2
f 89/6/2 90/6/2 96/6/2
f 96/6/2 91/6/2 97/6/2
f 97/6/2 91/6/2 98/6/2
f 94/6/2 95/6/2 99/6/2
f 96/6/2 97/6/2 99/6/2
f 95/6/2 96/6/2 99/6/2
f 99/6/2 97/6/2 100/6/2
f 100/6/2 97/6/2 101/6/2
f 101/6/2 97/6/2 102/6/2
f 100/6/2 101/6/2 103/6/2
f 103/6/2 101/6/2 104/6/2
f 107/6/3 106/6/3 105/6/3
f 108/6/3 106/6/3 107/6/3
f 113/2/3 112/2/3 111/2/3
f 114/2/3 112/2/3 113/2/3
f 115/6/3 110/6/3 109/6/3
f 117/2/3 113/2/3 111/2/3
f 117/1/3 114/1/3 113/1/3
f 118/2/3 112/2/3 114/2/3
f 118/1/3 114/1/3 117/1/3
f 119/2/3 116/2/3 115/2/3
f 119/6/3 115/6/3 109/6/3
f 120/2/3 116/2/3 119/2/3
f 121/2/3 117/2/3 111/2/3
f 121/2/3 118/2/3 117/2/3
f 122/2/3 112/2/3 118/2/3
f 122/2/3 118/2/3 121/2/3
f 123/2/3 121/2/3 111/2/3
f 123/1/3 122/1/3 121/1/3
f 124/2/3 112/2/3 122/2/3
f 124/1/3 122/1/3 123/1/3
f 125/2/3 123/2/3 111/2/3
f 125/2/3 124/2/3 123/2/3
f 126/2/3 124/2/3 125/2/3
f 127/2/3 112/2/3 124/2/3
f 127/2/3 124/2/3 126/2/3
f 128/4/3 126/4/3 125/4/3
f 129/4/3 126/4/3 128/4/3
f 130/6/3 119/6/3 109/6/3
f 131/6/3 119/6/3 130/6/3
f 134/6/3 133/6/3 132/6/3
f 135/6/3 133/6/3 134/6/3
f 138/6/3 137/6/3 136/6/3
f 139/6/3 137/6/3 138/6/3
f 142/6/3 141/6/3 140/6/3
f 143/6/3 141/6/3 142/6/3
f 146/6/3 145/6/3 144/6/3
f 147/6/3 145/6/3 146/6/3
f 150/6/3 149/6/3 148/6/3
f 151/6/3 149/6/3 150/6/3
f 154/6/3 153/6/3 152/6/3
f 155/6/3 153/6/3 154/6/3
f 158/6/3 157/6/3 156/6/3
f 159/6/3 157/6/3 158/6/3
f 160/6/4 161/6/4 162/6/4
f 162/6/4 161/6/4 163/6/4
f 164/2/4 165/2/4 166/2/4
f 166/2/4 165/2/4 167/2/4
f 168/6/4 169/6/4 170/6/4
f 170/6/4 169/6/4 171/6/4
f 172/6/4 173/6/4 174/6/4
f 174/6/4 173/6/4 175/6/4
f 176/6/4 177/6/4 178/6/4
f 178/6/4 177/6/4 179/6/4
f 180/6/4 181/6/4 182/6/4
f 182/6/4 181/6/4 183/6/4
f 184/6/4 185/6/4 186/6/4
f 186/6/4 185/6/4 187/6/4
f 190/2/4 191/2/4 192/2/4
f 192/2/4 191/2/4 193/2/4
f 190/2/4 192/2/4 194/2/4
f 192/1/4 193/1/4 194/1/4
f 193/2/4 191/2/4 195/2/4
f 194/1/4 193/1/4 195/1/4
f 190/2/4 194/2/4 196/2/4
f 194/2/4 195/2/4 196/2/4
f 195/2/4 191/2/4 197/2/4
f 196/2/4 195/2/4 197/2/4
f 190/2/4 196/2/4 198/2/4
f 196/1/4 197/1/4 198/1/4
f 197/2/4 191/2/4 199/2/4
f 198/1/4 197/1/4 199/1/4
f 190/2/4 198/2/4 200/2/4
f 198/2/4 199/2/4 200/2/4
f 200/2/4 199/2/4 201/2/4
f 199/2/4 191/2/4 202/2/4
f 201/2/4 199/2/4 202/2/4
f 200/4/4 201/4/4 203/4/4
f 203/4/4 201/4/4 204/4/4
f 188/6/4 189/6/4 205/6/4
f 205/6/4 189/6/4 206/6/4
f 207/6/4 208/6/4 209/6/4
f 209/6/4 208/6/4 210/6/4
f 214/2/5 212/2/5 211/2/5
f 215/4/5 213/4/5 212/4/5
f 215/2/5 212/2/5 214/2/5
f 216/4/5 213/4/5 215/4/5
f 217/2/5 214/2/5 211/2/5
f 217/3/5 215/3/5 214/3/5
f 218/5/5 216/5/5 215/5/5
f 218/3/5 215/3/5 217/3/5
f 219/5/5 216/5/5 218/5/5
f 220/2/5 217/2/5 211/2/5
f 220/2/5 218/2/5 217/2/5
f 221/4/5 219/4/5 218/4/5
f 221/2/5 218/2/5 220/2/5
f 222/4/5 219/4/5 221/4/5
f 225/6/5 224/6/5 223/6/5
f 226/6/5 224/6/5 225/6/5
f 227/6/5 225/6/5 223/6/5
f 228/6/5 225/6/5 227/6/5
f 229/6/5 224/6/5 226/6/5
f 230/6/5 224/6/5 229/6/5
f 235/6/5 232/6/5 231/6/5
f 236/6/5 234/6/5 233/6/5
f 237/6/5 235/6/5 231/6/5
f 237/6/5 236/6/5 235/6/5
f 238/6/5 234/6/5 236/6/5
f 238/6/5 236/6/5 237/6/5
f 243/6/5 240/6/5 239/6/5
f 244/6/5 240/6/5 243/6/5
f 245/6/5 242/6/5 241/6/5
f 246/6/5 242/6/5 245/6/5
f 251/6/5 248/6/5 247/6/5
f 252/6/5 248/6/5 251/6/5
f 253/6/5 250/6/5 249/6/5
f 254/6/5 250/6/5 253/6/5
f 259/6/5 256/6/5 255/6/5
f 260/6/5 256/6/5 259/6/5
f 261/6/5 258/6/5 257/6/5
f 262/6/5 258/6/5 261/6/5
f 263/4/6 264/4/6 265/4/6
f 265/4/6 264/4/6 266/4/6
f 265/5/6 266/5/6 267/5/6
f 267/5/6 266/5/6 268/5/6
f 267/4/6 268/4/6 269/4/6
f 269/4/6 268/4/6 270/4/6
f 271/6/6 272/6/6 273/6/6
f 273/6/6 272/6/6 274/6/6
f 275/6/6 276/6/6 277/6/6
f 277/6/6 276/6/6 278/6/6
f 279/6/6 280/6/6 283/6/6
f 283/6/6 280/6/6 284/6/6
f 281/6/6 282/6/6 285/6/6
f 285/6/6 282/6/6 286/6/6
f 287/6/6 288/6/6 289/6/6
f 289/6/6 288/6/6 290/6/6
f 291/6/6 292/6/6 295/6/6
f 293/6/6 294/6/6 295/6/6
f 292/6/6 293/6/6 295/6/6
f 295/6/6 294/6/6 296/6/6
f 297/6/6 298/6/6 299/6/6
f 299/6/6 298/6/6 300/6/6
f 301/2/6 302/2/6 303/2/6
f 303/2/6 302/2/6 304/2/6
f 305/6/6 306/6/6 307/6/6
f 307/6/6 306/6/6 308/6/6
