# MagicaVoxel @ Ephtracy

# group
g office_piece

# material
mtllib office_piece.mtl
usemtl palette

# normals
vn -1 0 0
vn 1 0 0
vn 0 0 1
vn 0 0 -1
vn 0 -1 0
vn 0 1 0

# texcoords
vt 0.970703 0.5
vt 0.974609 0.5
vt 0.978516 0.5

# verts
v -4 0 4
v -4 0 -4
v -4 1 3
v -4 1 1
v -4 1 -1
v -4 1 -3
v -4 2 3
v -4 2 1
v -4 2 -1
v -4 2 -3
v -4 3 3
v -4 3 1
v -4 3 -1
v -4 3 -3
v -4 4 3
v -4 4 1
v -4 4 -1
v -4 4 -3
v -4 5 3
v -4 5 1
v -4 5 -1
v -4 5 -3
v -4 6 3
v -4 6 1
v -4 6 -1
v -4 6 -3
v -4 7 3
v -4 7 1
v -4 7 -1
v -4 7 -3
v -4 8 4
v -4 8 -4
v 4 0 4
v 4 0 -4
v 4 1 3
v 4 1 1
v 4 1 -1
v 4 1 -3
v 4 2 3
v 4 2 1
v 4 2 -1
v 4 2 -3
v 4 3 3
v 4 3 1
v 4 3 -1
v 4 3 -3
v 4 4 3
v 4 4 1
v 4 4 -1
v 4 4 -3
v 4 5 3
v 4 5 1
v 4 5 -1
v 4 5 -3
v 4 6 3
v 4 6 1
v 4 6 -1
v 4 6 -3
v 4 7 3
v 4 7 1
v 4 7 -1
v 4 7 -3
v 4 8 4
v 4 8 -4
v -4 0 4
v -4 8 4
v -3 1 4
v -3 2 4
v -3 3 4
v -3 4 4
v -3 5 4
v -3 6 4
v -3 7 4
v -1 1 4
v -1 2 4
v -1 3 4
v -1 4 4
v -1 5 4
v -1 6 4
v -1 7 4
v 1 1 4
v 1 2 4
v 1 3 4
v 1 4 4
v 1 5 4
v 1 6 4
v 1 7 4
v 3 1 4
v 3 2 4
v 3 3 4
v 3 4 4
v 3 5 4
v 3 6 4
v 3 7 4
v 4 0 4
v 4 8 4
v -4 0 -4
v -4 8 -4
v -3 1 -4
v -3 2 -4
v -3 3 -4
v -3 4 -4
v -3 5 -4
v -3 6 -4
v -3 7 -4
v -1 1 -4
v -1 2 -4
v -1 3 -4
v -1 4 -4
v -1 5 -4
v -1 6 -4
v -1 7 -4
v 1 1 -4
v 1 2 -4
v 1 3 -4
v 1 4 -4
v 1 5 -4
v 1 6 -4
v 1 7 -4
v 3 1 -4
v 3 2 -4
v 3 3 -4
v 3 4 -4
v 3 5 -4
v 3 6 -4
v 3 7 -4
v 4 0 -4
v 4 8 -4
v -4 0 4
v 4 0 4
v -4 0 -4
v 4 0 -4
v -4 8 4
v 4 8 4
v -3 8 3
v 3 8 3
v -3 8 -3
v 3 8 -3
v -4 8 -4
v 4 8 -4

# faces
f 3/2/1 2/2/1 1/2/1
f 4/2/1 2/2/1 3/2/1
f 5/2/1 2/2/1 4/2/1
f 6/2/1 2/2/1 5/2/1
f 7/2/1 3/2/1 1/2/1
f 7/1/1 4/1/1 3/1/1
f 8/2/1 5/2/1 4/2/1
f 8/1/1 4/1/1 7/1/1
f 9/1/1 6/1/1 5/1/1
f 9/2/1 5/2/1 8/2/1
f 10/2/1 2/2/1 6/2/1
f 10/1/1 6/1/1 9/1/1
f 11/2/1 9/2/1 8/2/1
f 11/2/1 8/2/1 7/2/1
f 11/2/1 10/2/1 9/2/1
f 11/2/1 7/2/1 1/2/1
f 12/2/1 10/2/1 11/2/1
f 13/2/1 10/2/1 12/2/1
f 14/2/1 2/2/1 10/2/1
f 14/2/1 10/2/1 13/2/1
f 15/2/1 11/2/1 1/2/1
f 15/3/1 12/3/1 11/3/1
f 16/2/1 13/2/1 12/2/1
f 16/3/1 12/3/1 15/3/1
f 17/3/1 14/3/1 13/3/1
f 17/2/1 13/2/1 16/2/1
f 18/2/1 2/2/1 14/2/1
f 18/3/1 14/3/1 17/3/1
f 19/2/1 15/2/1 1/2/1
f 19/2/1 17/2/1 16/2/1
f 19/2/1 18/2/1 17/2/1
f 19/2/1 16/2/1 15/2/1
f 20/2/1 18/2/1 19/2/1
f 21/2/1 18/2/1 20/2/1
f 22/2/1 2/2/1 18/2/1
f 22/2/1 18/2/1 21/2/1
f 23/2/1 19/2/1 1/2/1
f 23/3/1 20/3/1 19/3/1
f 24/2/1 21/2/1 20/2/1
f 24/3/1 20/3/1 23/3/1
f 25/3/1 22/3/1 21/3/1
f 25/2/1 21/2/1 24/2/1
f 26/2/1 2/2/1 22/2/1
f 26/3/1 22/3/1 25/3/1
f 27/2/1 23/2/1 1/2/1
f 27/1/1 24/1/1 23/1/1
f 28/2/1 25/2/1 24/2/1
f 28/1/1 24/1/1 27/1/1
f 29/1/1 26/1/1 25/1/1
f 29/2/1 25/2/1 28/2/1
f 30/2/1 2/2/1 26/2/1
f 30/1/1 26/1/1 29/1/1
f 31/2/1 29/2/1 28/2/1
f 31/2/1 27/2/1 1/2/1
f 31/2/1 30/2/1 29/2/1
f 31/2/1 28/2/1 27/2/1
f 32/2/1 2/2/1 30/2/1
f 32/2/1 30/2/1 31/2/1
f 33/2/2 34/2/2 35/2/2
f 35/2/2 34/2/2 36/2/2
f 36/2/2 34/2/2 37/2/2
f 37/2/2 34/2/2 38/2/2
f 33/2/2 35/2/2 39/2/2
f 35/1/2 36/1/2 39/1/2
f 36/2/2 37/2/2 40/2/2
f 39/1/2 36/1/2 40/1/2
f 37/1/2 38/1/2 41/1/2
f 40/2/2 37/2/2 41/2/2
f 38/2/2 34/2/2 42/2/2
f 41/1/2 38/1/2 42/1/2
f 40/2/2 41/2/2 43/2/2
f 39/2/2 40/2/2 43/2/2
f 41/2/2 42/2/2 43/2/2
f 33/2/2 39/2/2 43/2/2
f 43/2/2 42/2/2 44/2/2
f 44/2/2 42/2/2 45/2/2
f 42/2/2 34/2/2 46/2/2
f 45/2/2 42/2/2 46/2/2
f 33/2/2 43/2/2 47/2/2
f 43/3/2 44/3/2 47/3/2
f 44/2/2 45/2/2 48/2/2
f 47/3/2 44/3/2 48/3/2
f 45/3/2 46/3/2 49/3/2
f 48/2/2 45/2/2 49/2/2
f 46/2/2 34/2/2 50/2/2
f 49/3/2 46/3/2 50/3/2
f 33/2/2 47/2/2 51/2/2
f 48/2/2 49/2/2 51/2/2
f 49/2/2 50/2/2 51/2/2
f 47/2/2 48/2/2 51/2/2
f 51/2/2 50/2/2 52/2/2
f 52/2/2 50/2/2 53/2/2
f 50/2/2 34/2/2 54/2/2
f 53/2/2 50/2/2 54/2/2
f 33/2/2 51/2/2 55/2/2
f 51/3/2 52/3/2 55/3/2
f 52/2/2 53/2/2 56/2/2
f 55/3/2 52/3/2 56/3/2
f 53/3/2 54/3/2 57/3/2
f 56/2/2 53/2/2 57/2/2
f 54/2/2 34/2/2 58/2/2
f 57/3/2 54/3/2 58/3/2
f 33/2/2 55/2/2 59/2/2
f 55/1/2 56/1/2 59/1/2
f 56/2/2 57/2/2 60/2/2
f 59/1/2 56/1/2 60/1/2
f 57/1/2 58/1/2 61/1/2
f 60/2/2 57/2/2 61/2/2
f 58/2/2 34/2/2 62/2/2
f 61/1/2 58/1/2 62/1/2
f 60/2/2 61/2/2 63/2/2
f 33/2/2 59/2/2 63/2/2
f 61/2/2 62/2/2 63/2/2
f 59/2/2 60/2/2 63/2/2
f 62/2/2 34/2/2 64/2/2
f 63/2/2 62/2/2 64/2/2
f 67/2/3 66/2/3 65/2/3
f 68/2/3 66/2/3 67/2/3
f 69/2/3 66/2/3 68/2/3
f 70/2/3 66/2/3 69/2/3
f 71/2/3 66/2/3 70/2/3
f 72/2/3 66/2/3 71/2/3
f 73/2/3 66/2/3 72/2/3
f 74/2/3 67/2/3 65/2/3
f 74/1/3 68/1/3 67/1/3
f 75/2/3 69/2/3 68/2/3
f 75/1/3 68/1/3 74/1/3
f 76/3/3 70/3/3 69/3/3
f 76/2/3 69/2/3 75/2/3
f 77/2/3 71/2/3 70/2/3
f 77/3/3 70/3/3 76/3/3
f 78/3/3 72/3/3 71/3/3
f 78/2/3 71/2/3 77/2/3
f 79/1/3 73/1/3 72/1/3
f 79/3/3 72/3/3 78/3/3
f 80/2/3 66/2/3 73/2/3
f 80/1/3 73/1/3 79/1/3
f 81/2/3 79/2/3 78/2/3
f 81/2/3 78/2/3 77/2/3
f 81/2/3 80/2/3 79/2/3
f 81/2/3 77/2/3 76/2/3
f 81/2/3 76/2/3 75/2/3
f 81/2/3 75/2/3 74/2/3
f 81/2/3 74/2/3 65/2/3
f 82/2/3 80/2/3 81/2/3
f 83/2/3 80/2/3 82/2/3
f 84/2/3 80/2/3 83/2/3
f 85/2/3 80/2/3 84/2/3
f 86/2/3 80/2/3 85/2/3
f 87/2/3 66/2/3 80/2/3
f 87/2/3 80/2/3 86/2/3
f 88/2/3 81/2/3 65/2/3
f 88/1/3 82/1/3 81/1/3
f 89/2/3 83/2/3 82/2/3
f 89/1/3 82/1/3 88/1/3
f 90/3/3 84/3/3 83/3/3
f 90/2/3 83/2/3 89/2/3
f 91/2/3 85/2/3 84/2/3
f 91/3/3 84/3/3 90/3/3
f 92/3/3 86/3/3 85/3/3
f 92/2/3 85/2/3 91/2/3
f 93/1/3 87/1/3 86/1/3
f 93/3/3 86/3/3 92/3/3
f 94/2/3 66/2/3 87/2/3
f 94/1/3 87/1/3 93/1/3
f 95/2/3 91/2/3 90/2/3
f 95/2/3 93/2/3 92/2/3
f 95/2/3 94/2/3 93/2/3
f 95/2/3 90/2/3 89/2/3
f 95/2/3 89/2/3 88/2/3
f 95/2/3 88/2/3 65/2/3
f 95/2/3 92/2/3 91/2/3
f 96/2/3 66/2/3 94/2/3
f 96/2/3 94/2/3 95/2/3
f 97/2/4 98/2/4 99/2/4
f 99/2/4 98/2/4 100/2/4
f 100/2/4 98/2/4 101/2/4
f 101/2/4 98/2/4 102/2/4
f 102/2/4 98/2/4 103/2/4
f 103/2/4 98/2/4 104/2/4
f 104/2/4 98/2/4 105/2/4
f 97/2/4 99/2/4 106/2/4
f 99/1/4 100/1/4 106/1/4
f 100/2/4 101/2/4 107/2/4
f 106/1/4 100/1/4 107/1/4
f 101/3/4 102/3/4 108/3/4
f 107/2/4 101/2/4 108/2/4
f 102/2/4 103/2/4 109/2/4
f 108/3/4 102/3/4 109/3/4
f 103/3/4 104/3/4 110/3/4
f 109/2/4 103/2/4 110/2/4
f 104/1/4 105/1/4 111/1/4
f 110/3/4 104/3/4 111/3/4
f 105/2/4 98/2/4 112/2/4
f 111/1/4 105/1/4 112/1/4
f 110/2/4 111/2/4 113/2/4
f 109/2/4 110/2/4 113/2/4
f 111/2/4 112/2/4 113/2/4
f 108/2/4 109/2/4 113/2/4
f 107/2/4 108/2/4 113/2/4
f 106/2/4 107/2/4 113/2/4
f 97/2/4 106/2/4 113/2/4
f 113/2/4 112/2/4 114/2/4
f 114/2/4 112/2/4 115/2/4
f 115/2/4 112/2/4 116/2/4
f 116/2/4 112/2/4 117/2/4
f 117/2/4 112/2/4 118/2/4
f 112/2/4 98/2/4 119/2/4
f 118/2/4 112/2/4 119/2/4
f 97/2/4 113/2/4 120/2/4
f 113/1/4 114/1/4 120/1/4
f 114/2/4 115/2/4 121/2/4
f 120/1/4 114/1/4 121/1/4
f 115/3/4 116/3/4 122/3/4
f 121/2/4 115/2/4 122/2/4
f 116/2/4 117/2/4 123/2/4
f 122/3/4 116/3/4 123/3/4
f 117/3/4 118/3/4 124/3/4
f 123/2/4 117/2/4 124/2/4
f 118/1/4 119/1/4 125/1/4
f 124/3/4 118/3/4 125/3/4
f 119/2/4 98/2/4 126/2/4
f 125/1/4 119/1/4 126/1/4
f 122/2/4 123/2/4 127/2/4
f 124/2/4 125/2/4 127/2/4
f 125/2/4 126/2/4 127/2/4
f 121/2/4 122/2/4 127/2/4
f 120/2/4 121/2/4 127/2/4
f 97/2/4 120/2/4 127/2/4
f 123/2/4 124/2/4 127/2/4
f 126/2/4 98/2/4 128/2/4
f 127/2/4 126/2/4 128/2/4
f 131/2/5 130/2/5 129/2/5
f 132/2/5 130/2/5 131/2/5
f 133/2/6 134/2/6 135/2/6
f 135/2/6 134/2/6 136/2/6
f 133/2/6 135/2/6 137/2/6
f 135/3/6 136/3/6 137/3/6
f 136/2/6 134/2/6 138/2/6
f 137/3/6 136/3/6 138/3/6
f 133/2/6 137/2/6 139/2/6
f 137/2/6 138/2/6 139/2/6
f 138/2/6 134/2/6 140/2/6
f 139/2/6 138/2/6 140/2/6
